<?xml version="1.0" standalone="no"?>
<!DOCTYPE svg PUBLIC "-//W3C//DTD SVG 20010904//EN"
 "http://www.w3.org/TR/2001/REC-SVG-20010904/DTD/svg10.dtd">
<svg version="1.0" xmlns="http://www.w3.org/2000/svg"
 width="1024.000000pt" height="1024.000000pt" viewBox="0 0 1024.000000 1024.000000"
 preserveAspectRatio="xMidYMid meet">
<metadata>
Created by potrace 1.11, written by Peter Selinger 2001-2013
</metadata>
<g transform="translate(0.000000,1024.000000) scale(0.100000,-0.100000)"
fill="#000000" stroke="none">
<path d="M2556 6323 c-8 -19 0 -812 9 -858 9 -53 20 -982 13 -1095 -1 -14 2
-42 6 -62 7 -32 13 -38 35 -40 42 -2 66 2 69 12 2 6 23 10 47 10 24 0 47 5 50
10 3 6 14 10 25 10 32 0 46 64 23 110 -13 27 -45 40 -98 40 -12 0 -27 6 -33
13 -6 8 -12 227 -16 617 -6 601 -9 723 -21 1040 -5 122 -10 169 -21 181 -8 9
-11 19 -7 22 3 4 -12 7 -34 7 -29 0 -43 -5 -47 -17z"/>
<path d="M3023 6326 c-6 -8 -9 -17 -6 -20 4 -3 -3 -6 -15 -6 -13 0 -22 -6 -22
-15 0 -8 -4 -15 -8 -15 -9 0 -12 -15 -11 -75 0 -84 3 -104 11 -99 4 3 9 -384
10 -860 0 -476 1 -872 2 -878 1 -13 27 -33 59 -44 9 -3 17 -10 17 -15 0 -12
113 -12 125 0 6 5 21 11 35 13 14 2 24 9 22 16 -1 6 4 12 12 12 18 0 26 46 14
81 -10 29 -12 29 -143 42 -20 2 -20 10 -22 401 -1 225 2 405 7 411 5 6 21 12
37 13 15 1 36 12 45 25 19 24 24 102 8 112 -6 4 -8 11 -5 16 6 9 -18 13 -67 9
l-28 -1 0 318 c-1 175 -1 334 -1 353 -1 58 0 60 31 60 17 0 30 5 30 10 0 6 12
10 27 10 14 0 23 3 20 7 -4 3 -2 12 3 19 21 24 20 57 -1 72 -11 8 -18 20 -15
28 8 20 -154 19 -171 0z"/>
<path d="M3560 6320 c0 -14 -7 -20 -21 -20 -11 0 -18 -4 -14 -9 3 -6 -1 -13
-8 -18 -8 -4 -20 -32 -27 -60 -6 -29 -15 -53 -19 -53 -4 0 -8 -6 -8 -12 -1 -7
-5 -33 -9 -58 -16 -94 -5 -300 21 -395 8 -27 17 -72 21 -100 3 -27 11 -59 17
-70 6 -11 13 -31 15 -45 2 -13 7 -27 12 -30 8 -5 18 -46 27 -112 3 -21 9 -38
14 -38 5 0 8 -3 8 -7 -1 -5 2 -28 7 -53 4 -25 7 -48 6 -52 -1 -5 3 -8 8 -8 6
0 10 -12 10 -26 0 -14 5 -34 11 -45 42 -79 47 -539 7 -612 -12 -21 -14 -29
-21 -62 -7 -32 -79 -61 -89 -37 -7 18 -67 22 -83 5 -21 -20 -17 -72 7 -96 10
-10 18 -22 18 -26 0 -5 20 -12 44 -15 50 -8 130 9 120 25 -3 6 3 13 15 16 12
3 21 9 21 14 0 5 9 19 20 31 10 13 20 28 20 33 1 6 11 20 22 32 12 13 22 31
23 42 1 11 6 25 12 33 26 31 37 335 18 493 -4 39 -8 77 -8 85 0 8 -3 17 -8 20
-4 3 -9 19 -11 35 -2 17 -13 46 -25 66 -12 19 -23 50 -25 67 -1 18 -6 32 -10
32 -4 0 -8 11 -8 24 0 14 -5 37 -12 53 -15 39 -16 41 -29 101 -6 28 -16 52
-20 52 -5 0 -9 7 -9 16 0 18 -30 115 -40 129 -21 30 -35 362 -18 440 6 28 17
54 24 58 8 4 14 15 14 23 0 12 10 15 38 14 61 -3 83 0 78 9 -3 5 1 14 9 21 12
10 12 16 3 34 -7 11 -11 24 -10 29 1 4 -4 7 -12 7 -7 0 -16 9 -19 20 -4 17
-14 20 -66 20 -54 0 -61 -2 -61 -20z"/>
<path d="M4793 6333 c10 -9 -13 -33 -33 -33 -9 0 -25 -16 -36 -35 -10 -19 -22
-35 -26 -35 -5 0 -8 -7 -8 -15 0 -8 -4 -15 -9 -15 -5 0 -12 -17 -16 -37 -4
-21 -11 -43 -15 -48 -8 -9 -20 -398 -22 -705 -1 -116 12 -606 17 -631 2 -11 6
-28 9 -37 2 -9 8 -53 11 -97 4 -44 10 -82 14 -85 5 -3 9 -13 9 -22 4 -41 6
-48 12 -48 4 0 12 -25 19 -55 7 -30 17 -55 22 -55 5 0 9 -9 9 -20 0 -11 7 -20
15 -20 9 0 18 -7 21 -15 4 -8 15 -15 25 -15 10 0 19 -4 19 -9 0 -15 109 -34
120 -21 3 3 22 14 43 23 20 10 37 22 37 27 0 6 9 10 20 10 13 0 20 7 20 18 0
10 5 23 11 29 13 13 20 103 8 103 -5 0 -6 7 -3 15 10 25 -68 20 -84 -5 -7 -11
-19 -20 -27 -20 -8 0 -14 -6 -13 -12 3 -15 -43 -23 -78 -14 -13 4 -24 13 -24
21 0 8 -6 15 -13 15 -8 0 -21 8 -31 19 -16 18 -22 35 -33 94 -3 15 -8 27 -12
27 -4 0 -8 19 -9 43 -3 48 -10 101 -18 137 -14 59 -20 323 -17 700 3 405 7
515 22 535 4 5 8 21 9 34 0 13 8 31 16 40 9 10 16 22 16 28 0 18 134 41 144
24 4 -6 24 -11 45 -11 35 0 39 3 45 31 10 52 7 78 -12 97 -10 10 -21 26 -25
35 -5 14 -22 17 -103 17 -54 0 -94 -3 -91 -7z"/>
<path d="M5216 6303 c-7 -44 0 -772 8 -895 6 -90 12 -244 21 -598 7 -261 13
-369 22 -382 3 -6 8 -27 10 -47 3 -20 9 -37 14 -39 5 -2 9 -10 9 -18 0 -19 15
-18 35 3 16 15 16 41 11 272 -4 141 -9 274 -11 296 -2 22 -7 119 -11 216 l-7
177 31 16 c38 20 72 20 97 2 22 -16 20 26 29 -576 6 -388 7 -416 25 -434 18
-18 20 -18 50 0 17 10 31 24 31 31 0 7 5 13 10 13 10 0 6 576 -5 750 -6 110
-17 608 -19 887 0 134 -4 243 -7 243 -7 0 -23 50 -21 63 1 4 -5 10 -13 13 -8
4 -15 15 -15 25 0 14 -7 19 -25 19 -29 0 -28 4 -25 -175 2 -110 3 -684 1 -739
-1 -16 -4 -27 -7 -23 -4 3 -19 0 -35 -8 -35 -19 -83 -19 -98 -2 -7 10 -11 149
-12 457 -1 488 -1 490 -59 490 -25 0 -29 -5 -34 -37z"/>
<path d="M6393 6328 c-5 -67 -2 -2002 2 -2009 4 -5 21 -9 39 -9 25 0 35 5 39
19 2 10 5 207 7 437 1 231 2 425 2 432 2 24 23 5 26 -24 2 -16 7 -31 11 -34 9
-6 31 -139 31 -186 0 -19 4 -44 10 -54 9 -16 18 -57 24 -110 1 -8 5 -26 9 -40
3 -14 8 -59 11 -100 4 -41 8 -88 10 -105 3 -16 5 -67 7 -113 1 -77 3 -83 25
-88 12 -3 25 -12 28 -20 7 -19 66 -19 66 1 0 8 4 15 9 15 11 0 10 123 -1 130
-4 3 -9 25 -10 48 -2 23 -7 42 -11 42 -5 0 -6 4 -2 9 3 5 1 12 -4 15 -8 5 -14
43 -26 175 -3 30 -9 60 -14 65 -5 6 -9 18 -9 26 -1 28 -7 45 -30 89 -13 24
-21 46 -18 49 3 2 1 12 -3 21 -5 9 -12 49 -16 88 -4 40 -8 78 -9 85 -2 7 -6
29 -10 48 -13 66 -13 264 0 295 6 17 14 49 18 73 7 54 25 124 36 137 26 34 36
217 16 285 -7 25 -14 48 -15 53 0 4 -8 21 -16 37 -9 17 -13 35 -10 40 3 6 2
10 -4 10 -5 0 -8 9 -6 20 2 11 -1 22 -6 25 -5 4 -6 11 -3 17 4 7 2 8 -4 4 -7
-4 -13 -2 -13 3 -1 6 -2 15 -3 19 0 4 -16 23 -33 42 -18 19 -33 38 -33 43 0
13 -117 8 -117 -5z"/>
<path d="M6805 6301 c-6 -36 2 -198 10 -212 2 -3 7 -28 10 -55 3 -27 8 -58 10
-69 6 -31 18 -118 18 -135 0 -8 3 -19 7 -25 5 -5 9 -30 11 -55 1 -25 7 -50 12
-57 5 -7 11 -34 13 -60 3 -26 9 -61 14 -78 5 -16 12 -100 14 -185 5 -150 9
-227 22 -395 4 -44 6 -98 6 -120 0 -22 -3 -151 -5 -288 -3 -141 -1 -249 4
-253 5 -3 9 -14 9 -25 0 -18 6 -20 48 -17 40 3 47 6 50 26 2 12 7 22 12 22 4
0 6 93 4 208 -13 537 -8 969 10 1147 2 17 7 66 10 110 7 76 13 129 21 185 2
14 6 59 10 100 3 41 8 87 11 102 9 45 12 128 4 128 -4 0 -10 9 -13 20 -6 23
-47 28 -47 5 0 -7 -8 -19 -17 -24 -10 -6 -15 -11 -11 -11 4 0 1 -17 -8 -38 -8
-22 -16 -52 -18 -68 -2 -16 -5 -29 -6 -29 -2 0 -8 -29 -16 -80 -3 -22 -7 -49
-9 -60 -2 -11 -4 -44 -4 -72 -1 -45 -4 -53 -20 -53 -20 0 -33 51 -46 180 -11
103 -28 185 -44 204 -9 10 -15 20 -13 22 1 2 2 13 2 24 0 15 -7 20 -29 20 -26
0 -30 -4 -36 -39z"/>
<path d="M7836 6315 c-4 -14 -11 -25 -17 -25 -12 0 -11 -109 1 -125 16 -22 24
-345 25 -1077 0 -422 3 -769 5 -771 16 -16 70 -10 70 8 0 8 5 15 10 15 11 0 6
732 -5 815 -4 33 -1 46 17 65 12 13 24 33 25 44 2 12 10 26 18 32 8 6 15 17
15 25 0 8 9 25 20 39 11 14 20 31 20 38 0 6 4 12 8 12 5 0 14 23 21 50 7 28
18 53 24 58 20 12 37 50 37 82 0 16 4 30 10 30 11 0 13 387 1 395 -5 2 -12 21
-15 40 -4 20 -13 38 -21 41 -14 6 -52 101 -47 117 1 5 -2 6 -7 2 -6 -3 -13 6
-17 20 -3 14 -12 25 -20 25 -8 0 -14 7 -14 15 0 8 -6 15 -14 15 -8 0 -18 9
-21 20 -5 17 -15 20 -65 20 -53 0 -58 -2 -64 -25z"/>
<path d="M8305 6297 c-7 -43 2 -726 11 -882 10 -168 19 -820 14 -1010 -1 -58
2 -91 9 -93 6 -2 11 -12 11 -22 0 -24 33 -31 66 -14 14 8 48 14 75 14 27 0 49
5 49 10 0 6 11 10 25 10 16 0 25 6 25 15 0 8 4 15 9 15 12 0 8 55 -6 71 -6 8
-11 18 -12 24 0 13 -53 24 -97 20 -19 -2 -34 1 -34 6 0 6 -4 8 -9 4 -6 -3 -10
3 -9 12 1 37 -14 1055 -18 1203 -8 329 -19 593 -26 648 -1 7 -16 12 -39 12
-37 0 -38 -1 -44 -43z"/>
<path d="M6030 6299 c-14 -4 -21 -7 -16 -8 5 -1 2 -9 -7 -19 -9 -9 -17 -30
-19 -45 -3 -16 -8 -32 -14 -35 -5 -4 -10 -25 -12 -47 -2 -22 -10 -59 -18 -83
-8 -23 -14 -58 -14 -78 0 -20 -6 -37 -13 -40 -16 -6 -15 -4 -22 -103 -3 -41
-9 -79 -14 -85 -4 -6 -9 -38 -10 -71 -2 -33 -5 -73 -7 -90 -3 -16 -7 -66 -11
-110 -3 -44 -9 -84 -13 -90 -4 -5 -8 -46 -10 -90 -2 -82 -5 -111 -15 -155 -3
-14 -8 -52 -11 -85 -8 -85 -11 -113 -17 -122 -3 -4 -8 -55 -12 -113 -4 -58 -9
-125 -11 -150 -2 -25 -4 -64 -5 -87 -1 -24 -6 -43 -11 -43 -5 0 -7 -3 -5 -7 3
-5 -1 -42 -8 -83 -8 -41 -10 -77 -7 -80 4 -3 7 -12 7 -20 0 -10 11 -15 35 -15
24 0 35 5 35 15 0 8 5 24 11 35 7 11 14 43 17 70 3 28 8 61 12 75 3 14 8 60 9
103 2 43 7 81 10 84 3 4 6 15 6 25 0 15 8 18 50 18 57 0 108 -18 139 -49 18
-18 20 -33 20 -191 1 -173 6 -219 22 -221 5 -1 15 -2 22 -3 19 -3 48 14 42 25
-4 5 1 9 9 9 14 0 15 22 12 178 -2 97 -6 184 -9 192 -7 18 -15 204 -22 495 -6
259 -18 500 -25 500 -2 0 -9 85 -14 180 -2 44 -7 105 -11 135 -3 30 -8 98 -10
150 -2 52 -4 97 -5 100 -1 3 -2 8 -1 12 2 14 -34 25 -59 17z"/>
<path d="M2164 6283 c-4 -10 -8 -20 -8 -23 -1 -3 -4 -10 -8 -15 -3 -6 -9 -27
-13 -48 -4 -20 -11 -37 -17 -37 -5 0 -7 -3 -5 -7 4 -7 -4 -86 -19 -173 -8 -51
-9 -54 -15 -65 -4 -5 -7 -43 -8 -84 -1 -41 -4 -78 -7 -83 -9 -14 -14 -50 -19
-123 -10 -147 -22 -252 -30 -265 -3 -4 -8 -59 -11 -121 -3 -62 -9 -122 -14
-134 -4 -11 -8 -51 -9 -89 -1 -39 -4 -72 -6 -75 -1 -3 -6 -35 -9 -71 -4 -36
-9 -85 -12 -110 -17 -167 -26 -225 -37 -239 -10 -12 -9 -13 2 -6 7 4 3 -6 -9
-23 -16 -22 -23 -44 -22 -74 2 -79 1 -78 49 -78 36 0 43 3 43 19 0 11 4 21 10
23 5 2 12 26 15 53 3 28 10 61 15 75 5 14 11 63 14 110 5 75 10 113 16 130 1
3 2 9 1 14 -3 13 114 -1 139 -16 11 -7 20 -18 20 -25 0 -6 4 -13 10 -15 6 -2
10 -73 11 -181 0 -141 3 -179 14 -183 8 -3 11 -12 8 -20 -10 -26 84 -22 104 4
17 22 10 368 -12 608 -3 38 -8 155 -10 260 -3 161 -12 384 -19 474 -1 14 -4
30 -8 35 -3 6 -6 44 -7 85 0 41 -4 95 -7 120 -3 25 -7 71 -8 102 0 32 -4 58
-8 58 -9 0 -18 64 -20 145 -1 39 -7 73 -12 77 -21 15 -74 9 -82 -9z"/>
<path d="M3964 6289 c-4 -7 -6 -226 -5 -488 3 -593 4 -671 12 -671 4 0 7 -37
8 -82 1 -46 4 -101 7 -123 3 -22 6 -48 7 -57 1 -10 4 -18 8 -18 3 0 7 -26 8
-57 4 -120 17 -224 28 -232 8 -6 14 -24 16 -53 1 -10 4 -18 8 -18 3 0 11 -18
18 -40 6 -22 16 -40 21 -40 6 0 10 -7 10 -15 0 -8 7 -15 15 -15 8 0 15 -7 15
-15 0 -8 14 -28 30 -45 17 -17 30 -35 30 -39 0 -5 21 -12 48 -16 50 -7 102 7
102 26 0 6 11 22 24 34 24 22 38 70 63 210 6 35 5 499 -1 600 -2 39 -7 156
-11 260 -4 105 -9 193 -11 197 -9 15 -5 573 4 576 8 2 3 56 -7 84 -2 4 -5 17
-8 28 -4 15 -14 20 -37 20 -19 0 -33 -5 -33 -12 -1 -7 -5 -26 -10 -43 -5 -16
-8 -52 -6 -80 1 -27 4 -97 7 -155 16 -299 25 -1498 12 -1562 -12 -63 -46 -84
-82 -50 -23 20 -57 72 -48 72 4 0 0 7 -7 16 -7 9 -14 21 -16 28 -2 11 -14 73
-17 91 -1 6 -5 15 -9 21 -3 6 -9 42 -13 80 -3 38 -9 83 -13 99 -5 17 -9 62 -9
100 -3 121 -10 214 -19 227 -4 7 -8 40 -9 73 -1 33 -4 85 -8 115 -6 49 -14
385 -20 757 -1 72 -5 135 -9 139 -4 4 -7 18 -7 31 0 13 -4 23 -10 23 -5 0 -9
6 -7 13 3 16 -59 22 -69 6z"/>
<path d="M7454 4465 c-4 -8 -12 -15 -20 -15 -13 0 -16 -17 -16 -85 0 -47 2
-55 16 -55 7 0 16 -9 19 -21 5 -17 8 -19 26 -8 11 7 17 17 15 21 -3 4 1 8 9 8
20 0 37 40 33 75 -2 17 -5 31 -6 33 -1 1 -3 5 -4 10 -3 15 -41 52 -54 52 -7 0
-15 -7 -18 -15z"/>
</g>
</svg>
